# xmcd
#
# Track frame offsets: 
#        150
#        24276
#        49516
#        70295
#        97594
#        116203
#        135643
#        154000
#
# Disc length: 2356 seconds
#
# Revision: 2
# Processed by: cddbd v1.5.2PL0 Copyright (c) Steve Scherf et al.
# Submitted via: ExactAudioCopyFreeDBPlugin 1.0
#
DISCID=5c093208
DTITLE=Fats Gaines Band - Presents Zorina ''Born To Dance''
DYEAR=1983
DGENRE=Disco+Funk
TTITLE0=Born To Dance
TTITLE1=Woman In Love
TTITLE2=Sweet Freak
TTITLE3=My Love Is Always
TTITLE4=New Wave Baby
TTITLE5=Now That I Found You (Helpless)
TTITLE6=I Just Want To Freak With You
TTITLE7=For Your Love
EXTD=
EXTT0=
EXTT1=
EXTT2=
EXTT3=
EXTT4=
EXTT5=
EXTT6=
EXTT7=
PLAYORDER=
